<?xml version="1.0" encoding="UTF-8"?>
<svg width="512" height="512" viewBox="0 0 512 512" fill="none" xmlns="http://www.w3.org/2000/svg">
  <rect x="80" y="80" width="352" height="352" rx="40" fill="#2563EB"/>
  <path d="M256 120C182.3 120 120 182.3 120 256C120 329.7 182.3 392 256 392C329.7 392 392 329.7 392 256C392 182.3 329.7 120 256 120ZM310.6 246.6L256.6 326.6C255.2 328.8 252.7 330 250 330C249.1 330 248.2 329.8 247.4 329.4C243.8 327.8 242.2 323.6 243.8 320L280 256.8L250 256C246.9 256 244.1 254.3 242.8 251.6C241.5 248.9 242 245.7 244 243.4L298 163.4C300.4 160.6 304.6 160 307.4 162.4C310.2 164.8 310.8 169 308.4 171.8L272.2 216H302.2C305.3 216 308.1 217.7 309.4 220.4C310.7 223.1 310.2 226.3 308.2 228.6L310.6 246.6Z" fill="white"/>
</svg>
