<?xml version="1.0" encoding="UTF-8"?>
<svg width="512" height="512" viewBox="0 0 512 512" fill="none" xmlns="http://www.w3.org/2000/svg">
  <path d="M400 320V96H112V320H96V96C96 87.2 99.2 79.5 105.4 73.4C111.5 67.2 119.2 64 128 64H384C392.8 64 400.5 67.2 406.6 73.4C412.8 79.5 416 87.2 416 96V320H400Z" fill="white"/>
  <path d="M176 96H336V320H176V96ZM224 192H288L256 256L288 256L224 352V288H192L224 192Z" fill="white"/>
  <path d="M128 352V416C128 424.8 124.8 432.5 118.6 438.6C112.5 444.8 104.8 448 96 448H80C71.2 448 63.5 444.8 57.4 438.6C51.2 432.5 48 424.8 48 416V352H128Z" fill="white"/>
  <path d="M464 352V416C464 424.8 460.8 432.5 454.6 438.6C448.5 444.8 440.8 448 432 448H416C407.2 448 399.5 444.8 393.4 438.6C387.2 432.5 384 424.8 384 416V352H464Z" fill="white"/>
</svg>
